<?xml version="1.0" encoding="utf-8"?>
<!-- Generator: Adobe Illustrator 19.0.0, SVG Export Plug-In . SVG Version: 6.00 Build 0)  -->
<svg version="1.1" id="Слой_1" xmlns="http://www.w3.org/2000/svg" xmlns:xlink="http://www.w3.org/1999/xlink" x="0px" y="0px"
	 viewBox="0 0 300 300" style="enable-background:new 0 0 300 300;" xml:space="preserve">
<style type="text/css">
	.st0{fill:#505CFD;}
</style>
<g id="XMLID_2_">
	<path id="XMLID_3_" class="st0" d="M256,44c28.2,28.2,42.8,63.5,44,106c-1.2,42.5-15.8,77.9-44,106c-28.2,28.2-63.5,42.8-106,44
		c-42.5-1.2-77.9-15.8-106-44C15.8,227.9,1.2,192.5,0,150c1.2-42.5,15.8-77.9,44-106C72.1,15.8,107.5,1.2,150,0
		C192.5,1.2,227.9,15.8,256,44z M249,249.2c26.5-26.4,40.2-59.5,41.2-99.2c-0.9-39.7-14.7-72.8-41.2-99.4
		c-26.5-26.5-59.5-40.2-99-41.2c-39.7,0.9-72.8,14.7-99.4,41.4C24.1,77.5,10.4,110.5,9.5,150c0.9,39.5,14.7,72.5,41.2,99
		c26.5,26.5,59.6,40.2,99.4,41.2C189.5,289.3,222.5,275.6,249,249.2z M233.1,66.8c22.2,22.1,33.8,49.8,34.7,83.2
		c-0.9,33.2-12.5,60.9-34.7,83.1c-22.2,22.2-49.9,33.8-83.1,34.7c-33.2-0.9-60.9-12.5-83.1-34.7c-22.2-22.2-33.8-49.9-34.7-83.1
		c0.9-33.4,12.5-61.2,34.7-83.2c22.2-22.1,49.9-33.6,83.1-34.5C183.2,33.2,210.9,44.7,233.1,66.8z M226.4,226.4
		c20.3-20.3,30.8-45.8,31.5-76.4c-0.7-30.6-11.2-56.1-31.5-76.6c-20.3-20.4-45.8-31-76.4-31.7C119.4,42.4,93.9,53,73.4,73.4
		c-20.4,20.4-31,46-31.7,76.6c0.7,30.6,11.3,56.1,31.7,76.4c20.4,20.3,46,30.8,76.6,31.5C180.6,257.2,206.1,246.7,226.4,226.4z
		 M164,139.3c2.3,2.9,3.5,6.5,3.5,10.7c0,4.9-1.6,9-4.9,12.3c-3.3,3.3-7.5,5-12.6,5.3c-3.7-0.2-7-1.3-9.8-3.2l-34.3,23.5
		c-0.7,0.5-1.6,0.7-2.8,0.7c-1.6,0-2.9-0.6-3.9-1.9c-0.9-1.3-1.3-2.6-1.1-3.9c0.2-1.3,0.9-2.3,2.1-3l33.6-22.8
		c-1.2-2.1-1.8-4.4-1.8-7c0-4.2,1.2-7.8,3.7-10.7c2.5-2.9,5.5-5,9.3-6.1V62.7c0-1.2,0.5-2.3,1.4-3.3c0.9-1.1,2-1.6,3.3-1.6
		c1.3,0,2.5,0.5,3.5,1.6c1.1,1.1,1.6,2.2,1.6,3.3v70.4C158.6,134.4,161.7,136.4,164,139.3z M155.6,155.6c1.6-1.6,2.5-3.6,2.5-5.8
		c0-2.2-0.8-4.1-2.5-5.6c-1.6-1.5-3.6-2.3-5.8-2.3c-2.2,0-4.1,0.8-5.6,2.3c-1.5,1.5-2.3,3.4-2.3,5.6c0,2.2,0.8,4.2,2.3,5.8
		c1.5,1.6,3.4,2.5,5.8,2.5C152.1,158.1,154,157.2,155.6,155.6z"/>
</g>
</svg>
