<?xml version="1.0" encoding="utf-8"?>
<!-- Generator: Adobe Illustrator 19.0.0, SVG Export Plug-In . SVG Version: 6.00 Build 0)  -->
<svg version="1.1" id="Слой_1" xmlns="http://www.w3.org/2000/svg" xmlns:xlink="http://www.w3.org/1999/xlink" x="0px" y="0px"
	 viewBox="0 0 153.9 263" style="enable-background:new 0 0 153.9 263;" xml:space="preserve">
<style type="text/css">
	.st0{fill:#505CFD;}
</style>
<g id="XMLID_2_">
	<path id="XMLID_3_" class="st0" d="M153.9,258.5c0,1.4-0.5,2.5-1.4,3.3c-0.9,0.8-2,1.2-3.2,1.2H4.5c-1.2,0-2.3-0.5-3.2-1.4
		c-0.9-0.9-1.4-2-1.4-3.2l3-95.6c0.4-15,5.8-29.6,16.2-43.6c0.8-1,1.8-1.6,3-1.7c1.2-0.1,2.3,0.3,3.3,1.1
		c7.2,6.6,15.2,11.7,23.9,15.2c8.7,3.5,17.8,5.3,27.4,5.3c9.5,0,18.6-1.8,27.4-5.3c8.7-3.5,16.8-8.6,24.2-15.2
		c1-0.8,2.1-1.1,3.5-1.1c1.3,0.1,2.3,0.7,2.9,1.7c10.2,14.2,15.6,28.8,16.2,43.6l3,95.3V258.5z M144.9,254.3l-2.7-91.1
		c-0.4-12-4.3-23.6-11.7-34.9c-7,5.6-14.4,10-22.2,13.2c-6.2,2.6-12.8,4.4-19.8,5.4l9.6,74.9c0,1.2-0.4,2.3-1.4,3.2
		c-0.9,0.9-2,1.4-3.2,1.4H60.1c-1.4,0-2.5-0.5-3.3-1.5c-0.8-1-1.1-2.1-0.9-3.3l9.3-74.6c-6.6-1-13.1-2.8-19.5-5.4
		c-8.2-3.2-15.6-7.6-22.2-13.2c-7.4,11.2-11.3,22.8-11.7,34.9L9,254.3H144.9z M53.8,115.7c-7.2-3-13.7-7.4-19.4-13.2
		C28.7,96.7,24.4,90.2,21.3,83c-3-7.2-4.5-14.9-4.5-23c0-8.1,1.5-15.8,4.5-23c3-7.2,7.4-13.7,13.1-19.4c5.7-5.7,12.2-10.1,19.4-13.1
		C61,1.5,68.7,0,76.8,0c8.1,0,15.8,1.5,23,4.5c7.2,3,13.7,7.4,19.5,13.1c5.8,5.7,10.2,12.2,13.2,19.4c3,7.2,4.5,14.9,4.5,23.1
		c-0.4,17-6.3,31.2-17.6,42.5C108.2,114,94,119.8,77,120.2C68.7,120.2,61,118.7,53.8,115.7z M40.7,23.9C31,33.6,25.9,45.7,25.6,60.1
		c0.4,14.4,5.5,26.5,15.2,36.2c9.7,9.7,21.8,14.8,36.2,15.2c14.4-0.4,26.5-5.5,36.2-15.2c9.7-9.7,14.8-21.8,15.2-36.2
		c-0.4-14.4-5.5-26.5-15.2-36.2C103.5,14.2,91.4,9.1,77,8.7C62.5,9.1,50.5,14.2,40.7,23.9z M74,148.8l-8.7,68.8h23.4L80,148.8H74z"
		/>
</g>
</svg>
