<?xml version="1.0" encoding="utf-8"?>
<!-- Generator: Adobe Illustrator 19.0.0, SVG Export Plug-In . SVG Version: 6.00 Build 0)  -->
<svg version="1.1" id="Слой_1" xmlns="http://www.w3.org/2000/svg" xmlns:xlink="http://www.w3.org/1999/xlink" x="0px" y="0px"
	 viewBox="0 0 293.4 300" style="enable-background:new 0 0 293.4 300;" xml:space="preserve">
<style type="text/css">
	.st0{fill:#505CFD;}
</style>
<g id="XMLID_2_">
	<path id="XMLID_3_" class="st0" d="M41.4,143.6c0.9,0.9,1.4,2,1.4,3.3s-0.5,2.3-1.4,3.1c-0.9,0.8-1.9,1.3-3,1.3H4.7
		c-1.3,0-2.4-0.4-3.3-1.3c-0.9-0.8-1.4-1.9-1.4-3.1s0.5-2.4,1.4-3.3c0.9-0.9,2-1.4,3.3-1.4h33.6C39.4,142.1,40.4,142.6,41.4,143.6z
		 M66.7,73.3L43.1,49.4c-0.8-0.8-1.3-1.8-1.3-3c0-1.2,0.4-2.3,1.3-3.3c0.8-1,1.8-1.6,3-1.6c1.1,0,2.2,0.5,3.3,1.6L73.3,67
		c0.8,0.8,1.3,1.8,1.3,3c0,1.2-0.5,2.2-1.4,3.1c-0.9,0.9-1.9,1.4-3,1.4C68.9,74.5,67.7,74.1,66.7,73.3z M207.1,84.3
		c16,16.1,24.4,36.3,25,60.4c0,15.3-3.6,29.3-10.8,42c-7.2,12.7-17.4,23-30.3,31c-3.4,1.9-5.6,3.6-6.6,5.2c-1.1,1.6-1.6,4.2-1.6,8
		v17.3c0,1.3-0.5,2.3-1.4,3.1c-0.9,0.8-2,1.3-3.3,1.3h-62.6c-1.3,0-2.4-0.4-3.3-1.3c-0.9-0.8-1.4-1.9-1.4-3.1v-17.3
		c0-3.8-0.6-6.4-1.7-8c-1.2-1.6-2.9-3-5.2-4.2c-0.8-0.6-1.9-1.3-3.1-1.9c-12.4-8-22-18.2-28.8-30.8c-6.8-12.6-10.3-26.3-10.5-41.2
		c0.6-24.1,9-44.2,25.2-60.4c16.1-16.1,36.3-24.5,60.4-25.2C171,59.7,191,68.1,207.1,84.3z M213.4,182.1c6.4-11.3,9.6-23.8,9.6-37.4
		c-0.6-21.6-8.1-39.6-22.3-53.9c-14.3-14.4-32.2-21.9-53.8-22.5c-21.6,0.6-39.6,8.1-53.9,22.5c-14.4,14.4-21.9,32.3-22.5,53.9
		c0,13.2,3.1,25.4,9.3,36.6c6.2,11.2,14.8,20.5,25.9,27.8c1.3,0.6,2.3,1.3,3.1,1.9c2.7,1.5,5.2,3.6,7.4,6.3
		c2.2,2.7,3.4,7.2,3.6,13.5v12.9h53.8v-12.9c0-6.3,1.1-10.8,3.5-13.5c2.3-2.7,5.3-5.1,9.1-7.2C197.9,202.7,207,193.4,213.4,182.1z
		 M198.1,92.1l10.1,10.4c1,0.8,1.6,1.9,1.6,3.1s-0.5,2.3-1.6,3.1l-4.1,4.1c1,1.9,1.9,3.8,2.5,5.7h5.7c1.3,0,2.3,0.5,3.1,1.4
		c0.8,0.9,1.3,2,1.3,3.3v14.5c-0.2,2.7-1.7,4.2-4.4,4.4h-5.7c-0.6,1.9-1.5,3.8-2.5,5.7l4.1,4.1c1.9,2.1,1.9,4.3,0,6.6l-10.1,10.1
		c-2.1,1.9-4.3,1.9-6.6,0l-4.1-4.1c-1.9,0.8-3.8,1.6-5.7,2.2v6c-0.2,2.7-1.7,4.2-4.4,4.4h-14.5c-1.3,0-2.4-0.4-3.3-1.3
		c-0.9-0.8-1.4-1.9-1.4-3.1v-6c-1.9-0.6-3.7-1.4-5.3-2.2l-4.4,4.1c-0.8,0.8-1.8,1.3-3,1.3c-1.2,0-2.3-0.4-3.3-1.3l-10.4-10.1
		l-0.6-1.9c0,1.1-0.4,2-1.3,2.8l-1.3,1.3l0.3,0.6h1.9c1.3,0,2.3,0.5,3.1,1.4c0.8,0.9,1.3,2,1.3,3.3v7.9c0,1.3-0.4,2.4-1.3,3.3
		c-0.8,0.9-1.9,1.4-3.1,1.4h-1.9c0,0.2-0.1,0.4-0.3,0.6l1.3,1.3c1,1.1,1.6,2.2,1.6,3.3c0,1.2-0.5,2.2-1.6,3l-5.7,6
		c-0.6,0.6-1.7,1.1-3.1,1.3c-1.3-0.2-2.3-0.6-3.1-1.3l-1.3-1.3c-0.2,0-0.5,0.1-0.9,0.3v1.6c0,1.3-0.4,2.4-1.3,3.3
		c-0.8,0.9-1.9,1.4-3.1,1.4h-8.2c-1.3,0-2.3-0.5-3.1-1.4c-0.8-0.9-1.3-2-1.3-3.3v-1.6c-0.2-0.2-0.4-0.3-0.6-0.3l-1.3,1.3
		c-1.1,0.6-2.1,1.1-3.1,1.3c-1.3-0.2-2.4-0.6-3.5-1.3l-5.7-5.7c-1.5-2.3-1.5-4.5,0-6.6l1.3-1.3c0-0.2-0.1-0.4-0.3-0.6H84
		c-1.3,0-2.4-0.5-3.3-1.4c-0.9-0.9-1.4-2-1.4-3.3V166c0-1.3,0.5-2.4,1.4-3.3c0.9-0.9,2-1.4,3.3-1.4h1.6c0.2,0,0.3-0.2,0.3-0.6
		l-1.3-1.3c-0.8-0.8-1.2-1.9-1.1-3.3c0.1-1.4,0.5-2.4,1.1-3l5.7-5.7c2.3-1.9,4.5-1.9,6.6,0l1.3,1.3c0.2-0.2,0.4-0.3,0.6-0.3v-1.9
		c0-1.3,0.4-2.4,1.3-3.3c0.8-0.9,1.9-1.4,3.1-1.4h8.2c1.3,0,2.3,0.5,3.1,1.4c0.8,0.9,1.3,2,1.3,3.3v1.9c0.4,0,0.7,0.1,0.9,0.3
		l1.3-1.6c1-0.8,2.1-1.3,3.3-1.3c1.2,0,2.1,0.4,3,1.3l5.7,6c0.4,0.4,0.7,0.9,0.9,1.6c0-1,0.3-2,0.9-2.8l4.4-4.1
		c-1.1-1.9-1.9-3.8-2.5-5.7H128c-1.3,0-2.4-0.4-3.3-1.3c-0.9-0.8-1.4-1.9-1.4-3.1v-14.5c0-1.3,0.5-2.4,1.4-3.3
		c0.9-0.9,2-1.4,3.3-1.4h5.7c0.6-1.9,1.5-3.8,2.5-5.7l-4.4-4.1c-0.8-0.8-1.3-1.8-1.3-3c0-1.1,0.4-2.2,1.3-3.3l10.4-10.4
		c1-0.8,2.1-1.3,3.3-1.3c1.1,0,2.1,0.4,3,1.3l4.1,4.1c1.9-0.8,3.8-1.6,5.7-2.2v-5.7c0-1.3,0.5-2.4,1.4-3.3s2-1.4,3.3-1.4h14.5
		c1.3,0,2.3,0.5,3.1,1.4c0.8,0.9,1.3,2,1.3,3.3V94c1.9,0.6,3.8,1.4,5.7,2.2l4.1-4.1C193.8,90.5,196,90.5,198.1,92.1z M123.6,170.1
		c-1-0.8-1.8-1.9-2.2-3.1l-1.9-4.7c-0.8-1-1.1-2.3-0.6-3.8c-1.3,0.4-2.6,0.2-3.9-0.6c-1.4-0.8-2.8-1.4-4.2-1.7
		c-1.5-0.3-2.6-1.1-3.5-2.4c-0.6,1.3-1.7,2-3.1,2.2c-1.5,0.2-2.9,0.8-4.2,1.7c-1.4,0.9-2.7,1.2-3.9,0.8c0.2,1.3-0.1,2.6-0.8,3.9
		c-0.7,1.4-1.3,2.8-1.7,4.2c-0.4,1.5-1.3,2.6-2.5,3.5c1.3,0.6,2.1,1.6,2.5,2.8c0.4,1.7,1,3.2,1.7,4.6c0.7,1.4,1,2.7,0.8,3.9l1.3-0.3
		c1,0,1.9,0.3,2.5,0.9c1.3,0.8,2.8,1.5,4.7,1.9c1.3,0.4,2.2,1.3,2.8,2.5c0.8-1.3,2-2.1,3.5-2.5c1.5-0.4,2.9-1,4.4-1.9
		c1-0.8,2.3-1,3.8-0.6c-0.4-1.3-0.3-2.6,0.5-3.9c0.7-1.4,1.4-2.9,2-4.6C121.8,171.5,122.5,170.5,123.6,170.1z M115.6,161.6
		c2.2,2.3,3.3,5.1,3.3,8.3c0,3.3-1.2,6-3.5,8.3c-2.3,2.3-5,3.5-8.2,3.5c-3.1,0-5.9-1.1-8.2-3.5c-2.3-2.3-3.5-5.1-3.5-8.3
		c0-3.2,1.2-6,3.5-8.3c2.3-2.3,5-3.5,8.2-3.5C110.6,158.2,113.4,159.3,115.6,161.6z M181.3,256.9c0.9,0.8,1.4,1.9,1.4,3.1v5
		c0,6.3-2.3,11.7-6.9,16.4c-3.1,3.1-7,5.2-11.6,6.3c-1.3,3.8-3.5,6.8-6.6,9c-3.1,2.2-6.8,3.3-10.8,3.3c-4.1,0-7.7-1.1-10.9-3.3
		c-3.1-2.2-5.3-5.2-6.6-9c-4.4-1.1-8.3-3.1-11.6-6.3c-4.4-4.6-6.7-10.1-6.9-16.4v-5c0-1.3,0.5-2.3,1.4-3.1c0.9-0.8,2-1.3,3.3-1.3
		H178C179.2,255.7,180.3,256.1,181.3,256.9z M173.6,264.8h-53.8v0.3c0.2,3.8,1.6,7.1,4.1,10.1c1.7,1.5,3.3,2.5,5,3
		c1.7,0.5,3.1,0.8,4.2,0.8c1.1,0,2.1,0.4,2.8,1.1c0.7,0.7,1.2,1.6,1.4,2.7c0.4,2.5,1.5,4.6,3.1,6.1c1.7,1.6,3.7,2.4,6.1,2.4
		c2.4,0,4.4-0.8,6.1-2.4c1.7-1.6,2.7-3.6,3.1-6.1c0.2-1.1,0.7-1.9,1.6-2.7c0.8-0.7,1.8-1.1,2.8-1.1c2.7,0.2,5.8-1,9.1-3.8
		c2.7-2.9,4.1-6.3,4.1-10.1V264.8z M195.3,109.1l3.5-3.5l-4.1-3.8l-3.1,3.5c-0.8,0.6-1.8,1-2.8,1.1c-1,0.1-2-0.2-2.8-0.8
		c-3.1-1.7-6.3-2.9-9.4-3.8c-2.3-0.6-3.5-2.1-3.5-4.4v-4.7h-5.7v4.7c-0.2,2.3-1.4,3.8-3.5,4.4c-3.4,0.8-6.5,2.1-9.4,3.8
		c-2.1,1.1-4,0.9-5.7-0.3l-3.5-3.5l-3.8,3.8l3.5,3.5c1.3,1.7,1.5,3.6,0.6,5.7c-1.9,2.7-3.3,5.9-4.1,9.4c-0.4,2.1-1.9,3.3-4.4,3.5
		h-4.7v5.3h4.7c2.5,0.2,4,1.5,4.4,3.8c0.8,3.1,2.2,6.3,4.1,9.4c0.4,0.8,0.6,1.8,0.5,2.8c-0.1,1.1-0.5,2-1.1,2.8l-3.5,3.1l3.8,4.1
		l3.5-3.5c1.7-1.7,3.6-1.9,5.7-0.6c2.9,1.9,6.1,3.1,9.4,3.8c2.1,0.8,3.3,2.3,3.5,4.4v5h5.7v-5c0-2.1,1.2-3.6,3.5-4.4
		c3.6-0.6,6.7-1.9,9.4-3.8c0.8-0.6,1.8-0.9,2.8-0.8c1,0.1,2,0.6,2.8,1.4l3.1,3.5l4.1-4.1l-3.5-3.5c-0.8-0.6-1.3-1.5-1.3-2.5
		c0-1,0.2-2,0.6-2.8c1.9-3.1,3.2-6.3,4.1-9.4c0.6-2.3,2.1-3.6,4.4-3.8h4.7v-5.3h-4.7c-2.3-0.2-3.8-1.4-4.4-3.5
		c-0.8-3.6-2.2-6.7-4.1-9.4C193.6,112.7,193.8,110.8,195.3,109.1z M143.6,41.5c-0.9-0.8-1.4-1.9-1.4-3.1V4.7c0-1.3,0.5-2.4,1.4-3.3
		s2-1.4,3.1-1.4c1.1,0,2.2,0.5,3.1,1.4s1.4,2,1.4,3.3v33.6c0,1.3-0.5,2.3-1.4,3.1c-0.9,0.8-1.9,1.3-3,1.3
		C145.6,42.8,144.5,42.4,143.6,41.5z M182.2,118.2c3.2,3.4,4.9,7.4,4.9,12.3c0,4.8-1.6,8.9-4.9,12.1c-3.3,3.3-7.3,4.9-12.3,4.9
		c-4.9,0-9-1.6-12.1-4.7c-3.1-3.1-4.7-7.2-4.7-12.3c0-5,1.6-9.2,4.7-12.4c3.1-3.2,7.2-5,12.3-5.2C174.9,113.1,179,114.9,182.2,118.2
		z M175.9,136.3c1.6-1.6,2.4-3.6,2.4-6c0-2.4-0.8-4.4-2.4-6c-1.6-1.6-3.6-2.4-6-2.4c-2.4,0-4.4,0.8-6,2.4c-1.6,1.6-2.4,3.6-2.4,6
		c0,2.4,0.8,4.4,2.4,6c1.6,1.6,3.6,2.4,6.1,2.4C172.4,138.7,174.4,137.9,175.9,136.3z M251.9,46.4c0,1.2-0.4,2.1-1.3,3l-23.9,23.9
		c-0.8,0.8-1.9,1.3-3.1,1.3s-2.3-0.5-3.1-1.4c-0.8-0.9-1.3-2-1.3-3.1c0-1.1,0.4-2.1,1.3-3L244,43.1c2.3-1.9,4.5-1.9,6.6,0
		C251.5,44.1,251.9,45.2,251.9,46.4z M292.1,143.6c0.8,0.9,1.3,2,1.3,3.3c-0.2,2.7-1.7,4.2-4.4,4.4h-33.6c-2.7-0.2-4.2-1.7-4.4-4.4
		c0-1.3,0.4-2.4,1.3-3.3c0.8-0.9,1.9-1.4,3.1-1.4H289C290.3,142.1,291.3,142.6,292.1,143.6z"/>
</g>
</svg>
