<?xml version="1.0" encoding="utf-8"?>
<!-- Generator: Adobe Illustrator 19.0.0, SVG Export Plug-In . SVG Version: 6.00 Build 0)  -->
<svg version="1.1" id="Слой_1" xmlns="http://www.w3.org/2000/svg" xmlns:xlink="http://www.w3.org/1999/xlink" x="0px" y="0px"
	 viewBox="0 0 293.4 295.5" style="enable-background:new 0 0 293.4 295.5;" xml:space="preserve">
<style type="text/css">
	.st0{fill:#505CFD;}
</style>
<g id="XMLID_3_">
	<path id="XMLID_4_" class="st0" d="M292,59.8l-35.5,35.5c5.1,9.6,9.2,19.7,12.1,30.3c3,10.7,4.5,21.8,4.5,33.5
		c-1.1,38.5-14.4,70.6-40.1,96.3c-25.7,25.7-57.9,39-96.6,40.1c-38.5-1.1-70.6-14.4-96.3-39.9c-25.7-25.6-39-57.7-40.1-96.5
		c1.1-38.8,14.4-71,40.1-96.6c25.7-25.7,57.8-39,96.3-40.1c11.3,0,22.1,1.4,32.6,4.3c10.4,2.9,20.3,6.8,29.7,11.7l37.1-37.1
		c1.3-1.3,2.8-1.6,4.5-1.1c1.7,0.5,2.8,1.7,3.2,3.4l7,29.1l1,0.6l10.9,10.5l27.8,8.3c1.5,0.4,2.6,1.5,3.2,3.2
		C293.7,57,293.2,58.5,292,59.8z M226.5,249.1c24.1-24,36.5-53.9,37.4-89.9c-0.2-21.3-5.1-40.6-14.7-57.8l-1,0.6l-28.4-8.3l-3.5,3.5
		c6.8,8.7,12.2,18.3,16.1,28.6c3.9,10.3,5.9,21.4,5.9,33.1c-0.9,28.7-10.9,52.8-30,72c-19.2,19.3-43.1,29.2-71.9,29.9
		c-28.7-0.6-52.7-10.6-71.9-29.9c-19.2-19.3-29.1-43.3-29.7-72c0.6-28.7,10.5-52.7,29.7-71.9c19.2-19.2,43.1-29.1,71.9-29.7
		c11.9,0,23.1,2,33.5,5.9c10.4,3.9,20,9.3,28.7,16.1l2.6-2.2l-7.3-30.7v-0.3c-17.2-9.4-36.4-14.2-57.5-14.4
		c-36,0.9-66,13.3-90.1,37.4C22.3,93.1,9.8,123.2,8.9,159.2c0.8,36,13.3,66,37.4,89.9c24.1,24,54.1,36.4,90.1,37.2
		C172.4,285.4,202.4,273,226.5,249.1z M192.3,86c-7.9-6.2-16.5-11-25.9-14.4c-9.4-3.4-19.4-5.1-30-5.1c-26,0.6-47.8,9.7-65.3,27.2
		c-17.6,17.5-26.7,39.2-27.3,65.2c0.6,26.2,9.7,48,27.2,65.5c17.5,17.5,39.3,26.5,65.5,27.2c26.2-0.6,48-9.7,65.5-27.2
		c17.5-17.5,26.5-39.3,27.2-65.5c0-10.4-1.7-20.3-5.1-29.5c-3.4-9.3-8.1-17.8-14.1-25.7l-18.2,18.2c7.7,10.7,11.6,23.1,11.8,37.4
		c-0.4,19-7,34.7-19.6,47.3c-12.7,12.6-28.5,19.1-47.4,19.5c-19-0.4-34.7-6.9-47.3-19.5c-12.6-12.6-19.1-28.3-19.5-47.3
		c0.4-19,6.9-34.8,19.5-47.4c12.6-12.7,28.3-19.2,47.3-19.6c14.3,0.2,26.8,4.3,37.7,12.1L192.3,86z M167.4,110.9
		c-4.5-3-9.3-5.3-14.5-7c-5.2-1.7-10.7-2.6-16.5-2.6c-16.2,0.4-29.8,6.1-40.7,17.1c-11,11-16.7,24.5-17.1,40.7
		c0.4,16.2,6.1,29.8,17.1,40.7c11,11,24.5,16.7,40.7,17.1c16.4-0.4,30-6.1,40.9-17.1c10.9-11,16.5-24.5,16.9-40.7
		c-0.2-11.7-3.3-21.9-9.3-30.7l-19.2,19.2c1.7,3.4,2.7,7.2,2.9,11.5c-0.2,8.9-3.4,16.5-9.4,22.5c-6.1,6.1-13.7,9.2-22.8,9.4
		c-8.9-0.2-16.5-3.4-22.5-9.4c-6.1-6.1-9.2-13.6-9.4-22.5c0.2-9.2,3.4-16.8,9.4-22.8c6.1-6.1,13.6-9.2,22.5-9.4
		c4.5,0.2,8.5,1.2,12.1,2.9L167.4,110.9z M128.4,149.6l12.8-12.8c-1.5-0.4-3.1-0.6-4.8-0.6c-6.4,0.2-11.8,2.5-16.1,6.7
		c-4.4,4.3-6.5,9.6-6.5,16.1c0,6.5,2.2,11.9,6.5,16.3c4.4,4.4,9.8,6.5,16.3,6.5c6.5,0,11.9-2.2,16.1-6.5c4.3-4.4,6.5-9.7,6.7-16.1
		c0-1.7-0.2-3.2-0.6-4.5L146,167.1c-0.6,1.1-1.6,1.6-2.9,1.6c-1.3,0-2.5-0.5-3.5-1.6l-11.2-10.9
		C126.9,153.9,126.9,151.7,128.4,149.6z M248.2,42.9L138.3,152.8l4.5,4.8L253,47.7L248.2,42.9z M203.5,46.7l4.8,21.1l33.2-33.2
		l-5.1-21.1L203.5,46.7z M280.1,58.8L261,53.1l-33.2,33.2l18.8,5.7L280.1,58.8z"/>
</g>
</svg>
