<?xml version="1.0" encoding="utf-8"?>
<!-- Generator: Adobe Illustrator 19.0.0, SVG Export Plug-In . SVG Version: 6.00 Build 0)  -->
<svg version="1.1" id="Слой_1" xmlns="http://www.w3.org/2000/svg" xmlns:xlink="http://www.w3.org/1999/xlink" x="0px" y="0px"
	 viewBox="0 0 296.1 270.5" style="enable-background:new 0 0 296.1 270.5;" xml:space="preserve">
<style type="text/css">
	.st0{fill:#505CFD;}
</style>
<g id="XMLID_2_">
	<path id="XMLID_3_" class="st0" d="M156.3,266.2c0,1.2-0.5,2.3-1.4,3.1c-0.9,0.8-2,1.2-3.2,1.2H3.6c-1.2,0-2.3-0.5-3.1-1.4
		c-0.8-0.9-1.3-2-1.5-3.2l3.1-97.7c0.4-15.2,5.9-30,16.6-44.6c0.8-1,1.8-1.6,3.1-1.7c1.2-0.1,2.4,0.3,3.4,1.1
		c7.4,6.8,15.5,11.9,24.4,15.5c8.9,3.6,18.2,5.4,28,5.4c9.7,0,19.1-1.8,28-5.4c8.9-3.6,17.2-8.8,24.7-15.5c1-0.8,2.2-1.2,3.5-1.1
		c1.3,0.1,2.3,0.7,2.9,1.7c10.4,14.5,16,29.4,16.6,44.6L156.3,266.2z M147.1,261.6l-2.8-93.1c-0.4-12.1-4.4-24-12-35.6
		c-7,5.9-14.5,10.4-22.7,13.5c-6.4,2.7-13.1,4.5-20.3,5.5l9.8,75.9v0.9c0,1.2-0.5,2.3-1.4,3.1c-0.9,0.8-2,1.2-3.2,1.2H60.5
		c-1.4,0-2.6-0.5-3.4-1.5c-0.8-1-1.1-2.2-0.9-3.4l9.5-76.2c-6.8-1-13.4-2.9-20-5.5c-8.2-3.1-15.8-7.6-22.7-13.5
		c-7.6,11.7-11.6,23.6-12,35.6l-2.8,93.1H147.1z M54.2,119.9c-7.5-3.1-14.1-7.6-20-13.5c-5.8-5.9-10.3-12.6-13.4-20
		c-3.1-7.4-4.6-15.2-4.6-23.4c0-8.2,1.5-16,4.6-23.5c3.1-7.5,7.5-14.1,13.4-20c5.8-5.8,12.5-10.3,20-13.4c7.5-3.1,15.3-4.6,23.5-4.6
		c8.2,0,16,1.5,23.4,4.6c7.4,3.1,14,7.5,20,13.4c5.9,5.8,10.4,12.5,13.5,20c3.1,7.5,4.6,15.3,4.6,23.5c-0.4,17.4-6.4,31.9-18,43.5
		c-11.6,11.6-26.1,17.6-43.5,18C69.5,124.5,61.6,123,54.2,119.9z M40.6,26.1c-9.9,9.9-15.1,22.3-15.5,37c0.4,14.7,5.6,27.1,15.5,37
		c9.9,9.9,22.3,15.1,37,15.5c14.7-0.4,27.1-5.6,37-15.5c9.9-9.9,15.1-22.3,15.5-37c-0.4-14.7-5.6-27.1-15.5-37
		c-9.9-9.9-22.3-15.1-37-15.5C62.9,11,50.6,16.1,40.6,26.1z M74.6,153.7l-8.9,70.4h24l-8.9-70.4H74.6z M296.1,266.5v0.3
		c0,1.2-0.5,2.3-1.4,3.1c-0.9,0.8-2,1.2-3.2,1.2h-122c-1.2,0-2.3-0.5-3.1-1.4c-0.8-0.9-1.2-2-1.2-3.2l2.5-80.2
		c0.4-12.9,4.9-25.3,13.5-37.2c0.8-1,1.9-1.6,3.2-1.7c1.3-0.1,2.5,0.3,3.5,1.1c5.9,5.3,12.5,9.5,19.8,12.4c7.3,3,14.8,4.5,22.7,4.5
		c7.9,0,15.5-1.4,22.7-4.3c7.3-2.9,13.9-7.1,19.8-12.6c1.2-0.8,2.5-1.2,3.8-1.2c1.3,0,2.3,0.6,2.9,1.8c8.6,11.9,13.2,24.3,13.8,37.2
		L296.1,266.5z M286.9,262.2l-2.2-75.6c-0.2-9.8-3.4-19.3-9.5-28.3c-5.3,4.5-11.4,8.1-18.1,10.8c-4.9,2.3-10.2,3.7-16,4.3l8,62.4
		c0,1.2-0.5,2.3-1.4,3.2c-0.9,0.9-2,1.4-3.2,1.4h-28c-1.2,0-2.3-0.5-3.2-1.5c-0.9-1-1.4-2.2-1.4-3.4l8-62.1
		c-12.5-2-23.9-7.1-34.1-15.1c-5.7,9-8.8,18.4-9.2,28.3l-2.5,75.6H286.9z M194.4,135.9c-9.6-9.6-14.6-21.7-15.1-36.3
		c0.4-14.5,5.4-26.6,15.1-36.3c9.6-9.6,21.7-14.6,36.3-15.1c14.5,0.4,26.6,5.4,36.3,15.1c9.6,9.6,14.6,21.7,15.1,36.3
		c-0.4,14.5-5.4,26.6-15.1,36.3c-9.6,9.6-21.7,14.6-36.3,15.1C216.1,150.6,204.1,145.5,194.4,135.9z M200.9,69.5
		c-8,8-12.2,18-12.6,30.1c0.4,11.9,4.6,21.8,12.6,29.8c8,8,17.9,12.2,29.8,12.6c12.1-0.4,22.1-4.6,30.1-12.6
		c8-8,12.1-17.9,12.3-29.8c-0.2-12.1-4.3-22.1-12.3-30.1c-8-8-18-12.1-30.1-12.3C218.8,57.5,208.9,61.6,200.9,69.5z M221.5,231.5
		h18.1l-7.1-56.5h-3.7L221.5,231.5z"/>
</g>
</svg>
