<?xml version="1.0" encoding="utf-8"?>
<!-- Generator: Adobe Illustrator 19.0.0, SVG Export Plug-In . SVG Version: 6.00 Build 0)  -->
<svg version="1.1" id="Слой_1" xmlns="http://www.w3.org/2000/svg" xmlns:xlink="http://www.w3.org/1999/xlink" x="0px" y="0px"
	 viewBox="0 0 293.7 229" style="enable-background:new 0 0 293.7 229;" xml:space="preserve">
<style type="text/css">
	.st0{fill:#505CFD;}
</style>
<g id="XMLID_2_">
	<path id="XMLID_3_" class="st0" d="M293.7,224.8c0,1.2-0.4,2.2-1.3,3c-0.9,0.8-1.8,1.2-2.8,1.2h-79.7H84.6H5.2
		c-1.2,0-2.2-0.4-3-1.3c-0.8-0.9-1.2-1.8-1.2-2.8l1.5-52.6c0.2-8.6,3.3-16.8,9.3-24.8c0.8-1,1.8-1.5,3-1.6s2.3,0.3,3.3,1
		c3.8,3.4,8,6,12.5,7.9c4.6,1.9,9.4,2.8,14.3,2.8c5,0,9.8-0.9,14.3-2.8c4.6-1.9,8.8-4.5,12.5-7.9c1-0.8,2.1-1.1,3.3-1
		c1.2,0.1,2.2,0.6,3,1.6c1.8,2.4,3.4,5,4.8,7.8l0.3-12.8c0.6-13.1,5.3-25.8,14-37.9c0.8-1,1.8-1.5,3-1.6c1.2-0.1,2.2,0.3,3,1
		c6.2,5.8,13,10.2,20.6,13.1c7.6,3,15.4,4.5,23.6,4.5c8.2,0,15.9-1.5,23.3-4.5c7.4-3,14.2-7.4,20.6-13.1c1-0.8,2.1-1.1,3.3-1
		c1.2,0.1,2.2,0.6,3,1.6c8.8,12.3,13.3,25,13.7,37.9l0.6,12.8c1.2-2.8,2.8-5.4,4.8-7.8c0.8-1,1.7-1.5,2.8-1.6c1.1-0.1,2.1,0.3,3.1,1
		c7.8,7,16.8,10.6,27.2,10.8c10-0.2,18.9-3.8,26.9-10.8c1-0.8,2.1-1.1,3.3-1c1.2,0.1,2.2,0.6,3,1.6c5.8,8.2,8.8,16.4,9,24.8
		l1.8,52.3V224.8z M80.4,220.6l-1.5-48.1c-0.2-5.6-1.9-11.1-5.1-16.7c-6.4,4.8-13.2,7.9-20.6,9.3l4.8,38.8v0.9c0,1-0.4,1.9-1.2,2.8
		c-0.8,0.9-1.7,1.3-2.7,1.3H35.6c-1.2,0-2.2-0.5-3-1.5c-0.8-1-1.2-2.1-1.2-3.3l5.1-39.1c-7.4-1.4-14.2-4.5-20.6-9.3
		c-3.2,5.6-4.9,11.2-5.1,16.7l-1.5,48.1H80.4z M20.4,140.3c-6.6-6.6-10-14.7-10.2-24.5c0.2-9.8,3.6-17.9,10.2-24.5
		c6.6-6.6,14.7-10,24.5-10.2c9.8,0.2,17.9,3.6,24.5,10.2c6.6,6.6,10,14.7,10.2,24.5c-0.2,9.8-3.6,17.9-10.2,24.5
		c-6.6,6.6-14.7,10-24.5,10.2C35.1,150.2,27,146.9,20.4,140.3z M26.1,97.3c-5,5-7.5,11.2-7.5,18.7c0,7.5,2.5,13.7,7.5,18.7
		c5,5,11.2,7.5,18.8,7.5c7.6,0,13.8-2.5,18.7-7.5c4.9-5,7.3-11.2,7.3-18.7c0-7.5-2.4-13.7-7.3-18.7c-4.9-5-11.1-7.6-18.7-7.8
		C37.3,89.7,31.1,92.3,26.1,97.3z M40.4,200.6h9l-4.5-34.3L40.4,200.6z M205.6,220.6l-2.4-77.9c-0.2-10.2-3.5-20-9.9-29.6
		c-6,4.8-12.2,8.5-18.8,11.1c-5.4,2.4-11,4-16.7,4.8l8.1,64.2c-0.2,2.6-1.6,4-4.2,4.2h-29c-1.2,0-2.2-0.5-3-1.5
		c-0.8-1-1.1-2.1-0.9-3.3l8.1-63.6c-5.8-0.8-11.3-2.4-16.7-4.8c-6.8-2.6-13-6.3-18.8-11.1c-6.2,9.6-9.5,19.4-9.9,29.6l-2.4,77.9
		H205.6z M110.3,90.4c-9.8-9.8-14.8-22-15.2-36.7c0-7.2,1.3-13.9,3.9-20.2c2.6-6.3,6.4-11.9,11.3-16.9c5-5,10.6-8.8,17-11.3
		c6.4-2.6,13-3.9,20-3.9c14.7,0.4,27,5.5,36.7,15.2c9.8,9.8,14.8,22.1,15.2,37c-0.4,14.7-5.5,27-15.2,36.7
		c-9.8,9.8-22,14.8-36.7,15.2C132.4,105.2,120.1,100.2,110.3,90.4z M116.4,22.8c-8.3,8.3-12.6,18.6-13,30.9
		c0.4,12.3,4.7,22.7,13,30.9c8.3,8.3,18.6,12.6,30.9,13c12.3-0.4,22.6-4.7,30.9-13c8.3-8.3,12.6-18.6,13-30.9
		c-0.4-12.3-4.7-22.6-13-30.9c-8.3-8.3-18.6-12.6-30.9-13C135,10.2,124.7,14.5,116.4,22.8z M137.5,189h19.4l-7.5-58.5h-4.5
		L137.5,189z M285,220.6l-1.5-48.1c0-5.6-1.7-11.1-5.1-16.7c-6.2,4.8-13,7.9-20.6,9.3l5.1,38.8v0.9c0,1-0.4,1.9-1.2,2.8
		c-0.8,0.9-1.8,1.3-3,1.3h-18.2c-1.2,0-2.2-0.5-3-1.5c-0.8-1-1.2-2.1-1.2-3.3l5.1-39.1c-7.6-1.4-14.4-4.5-20.6-9.3
		c-3.4,5.6-5.1,11.2-5.1,16.7l-1.5,48.1H285z M225.1,140.3c-6.7-6.6-10.1-14.7-10.3-24.5c0.2-9.8,3.6-17.9,10.3-24.5
		c6.7-6.6,14.9-10,24.6-10.2c9.8,0.2,17.9,3.6,24.5,10.2c6.6,6.6,10,14.7,10.2,24.5c-0.2,9.8-3.6,17.9-10.2,24.5s-14.7,10-24.5,10.2
		C240,150.2,231.8,146.9,225.1,140.3z M231,97.3c-5,5-7.5,11.2-7.5,18.7c0,7.5,2.5,13.7,7.5,18.7c5,5,11.2,7.5,18.7,7.5
		c7.5,0,13.7-2.5,18.7-7.5c5-5,7.5-11.2,7.5-18.7c0-7.5-2.5-13.7-7.5-18.7c-5-5-11.2-7.6-18.5-7.8C242.2,89.7,235.9,92.3,231,97.3z
		 M245.3,200.6h9l-4.5-34.3h-0.3L245.3,200.6z"/>
</g>
</svg>
