<?xml version="1.0" encoding="utf-8"?>
<!-- Generator: Adobe Illustrator 19.0.0, SVG Export Plug-In . SVG Version: 6.00 Build 0)  -->
<svg version="1.1" id="Слой_1" xmlns="http://www.w3.org/2000/svg" xmlns:xlink="http://www.w3.org/1999/xlink" x="0px" y="0px"
	 viewBox="0 0 300 251.1" style="enable-background:new 0 0 40 35;" xml:space="preserve">
<style type="text/css">
	.st0{fill:#505CFD;}
</style>
<g id="XMLID_2_">
	<path id="XMLID_3_" class="st0" d="M297.8,52c1.4,3.3,2.1,6.7,2.1,10.2v161.4c0,7.7-2.7,14.2-8.1,19.3c-2.6,2.6-5.5,4.6-8.8,6
		c-3.3,1.4-6.7,2.1-10.2,2.1H27.4c-7.5,0-14-2.6-19.3-7.9C2.7,237.9,0,231.4,0,223.6V27.4c0-7.5,2.7-13.9,8.1-19.3
		C13.5,2.7,19.9,0,27.4,0h85.1c7.5,0,13.9,2.7,19.2,8.1c5.3,5.4,7.9,11.8,7.9,19.3v7.7h133.3c3.5,0,6.9,0.7,10.2,2.1
		c3.3,1.4,6.2,3.4,8.8,6C294.4,45.8,296.4,48.8,297.8,52z M10.2,27.4v44.7c4.9-4.2,10.7-6.4,17.2-6.7h245.4
		c6.6,0.2,12.3,2.5,17.2,6.7v-9.8c-0.2-4.7-2-8.7-5.3-12c-3.3-3.3-7.3-4.9-12-4.9H134.7c-1.4,0-2.6-0.5-3.5-1.6
		c-0.9-1.1-1.4-2.3-1.4-3.7V27.4c0-4.7-1.7-8.7-5.1-12.1c-3.4-3.4-7.4-5.1-12.1-5.1H27.4c-4.7,0-8.8,1.6-12.3,4.9
		C11.8,18.6,10.2,22.7,10.2,27.4z M290.1,92.8c-0.2-4.7-2-8.7-5.3-12.1c-3.3-3.4-7.3-5.1-12-5.1H27.4c-4.7,0-8.7,1.7-12.1,5.1
		c-3.4,3.4-5.1,7.4-5.1,12.1v7h279.9V92.8z M290.1,223.6V110.1H10.2v113.6c0,4.7,1.7,8.7,5.1,12.1c3.4,3.4,7.4,5.1,12.1,5.1h245.4
		c4.7,0,8.7-1.6,12-4.9C288.1,232.4,289.9,228.3,290.1,223.6z"/>
</g>
</svg>
